<mxfile host="app.diagrams.net" modified="2023-06-06T20:35:56.903Z" agent="Mozilla/5.0 (Windows NT 10.0; Win64; x64) AppleWebKit/537.36 (KHTML, like Gecko) Chrome/113.0.0.0 Safari/537.36" etag="xHRzff5o5uSMq39_MaJr" version="21.3.4" type="device">
  <diagram name="Page-1" id="2YBvvXClWsGukQMizWep">
    <mxGraphModel dx="1424" dy="1394" grid="1" gridSize="10" guides="1" tooltips="1" connect="1" arrows="1" fold="1" page="1" pageScale="1" pageWidth="850" pageHeight="1100" math="0" shadow="0">
      <root>
        <mxCell id="0" />
        <mxCell id="1" parent="0" />
        <mxCell id="30_RvWhmGhzX1LiPIPOz-1" value="GetSubscriptionToCall" style="shape=umlLifeline;perimeter=lifelinePerimeter;whiteSpace=wrap;html=1;container=0;dropTarget=0;collapsible=0;recursiveResize=0;outlineConnect=0;portConstraint=eastwest;newEdgeStyle={&quot;edgeStyle&quot;:&quot;elbowEdgeStyle&quot;,&quot;elbow&quot;:&quot;vertical&quot;,&quot;curved&quot;:0,&quot;rounded&quot;:0};" vertex="1" parent="1">
          <mxGeometry x="290" y="210" width="125" height="1190" as="geometry" />
        </mxCell>
        <mxCell id="30_RvWhmGhzX1LiPIPOz-2" value="doGet(request, response)" style="html=1;verticalAlign=bottom;startArrow=oval;endArrow=block;startSize=8;edgeStyle=elbowEdgeStyle;elbow=vertical;curved=0;rounded=0;" edge="1" parent="30_RvWhmGhzX1LiPIPOz-1" target="30_RvWhmGhzX1LiPIPOz-3">
          <mxGeometry relative="1" as="geometry">
            <mxPoint x="-100" y="70" as="sourcePoint" />
            <mxPoint x="45" y="70" as="targetPoint" />
          </mxGeometry>
        </mxCell>
        <mxCell id="30_RvWhmGhzX1LiPIPOz-3" value="" style="html=1;points=[];perimeter=orthogonalPerimeter;outlineConnect=0;targetShapes=umlLifeline;portConstraint=eastwest;newEdgeStyle={&quot;edgeStyle&quot;:&quot;elbowEdgeStyle&quot;,&quot;elbow&quot;:&quot;vertical&quot;,&quot;curved&quot;:0,&quot;rounded&quot;:0};" vertex="1" parent="30_RvWhmGhzX1LiPIPOz-1">
          <mxGeometry x="58" y="70" width="10" height="1080" as="geometry" />
        </mxCell>
        <mxCell id="30_RvWhmGhzX1LiPIPOz-4" value="Session" style="shape=umlLifeline;perimeter=lifelinePerimeter;whiteSpace=wrap;html=1;container=0;dropTarget=0;collapsible=0;recursiveResize=0;outlineConnect=0;portConstraint=eastwest;newEdgeStyle={&quot;edgeStyle&quot;:&quot;elbowEdgeStyle&quot;,&quot;elbow&quot;:&quot;vertical&quot;,&quot;curved&quot;:0,&quot;rounded&quot;:0};" vertex="1" parent="1">
          <mxGeometry x="460" y="210" width="100" height="1240" as="geometry" />
        </mxCell>
        <mxCell id="30_RvWhmGhzX1LiPIPOz-5" value="" style="html=1;points=[];perimeter=orthogonalPerimeter;outlineConnect=0;targetShapes=umlLifeline;portConstraint=eastwest;newEdgeStyle={&quot;edgeStyle&quot;:&quot;elbowEdgeStyle&quot;,&quot;elbow&quot;:&quot;vertical&quot;,&quot;curved&quot;:0,&quot;rounded&quot;:0};" vertex="1" parent="30_RvWhmGhzX1LiPIPOz-4">
          <mxGeometry x="45" y="90" width="10" height="30" as="geometry" />
        </mxCell>
        <mxCell id="30_RvWhmGhzX1LiPIPOz-6" value="getAttribute(&quot;user&quot;)" style="html=1;verticalAlign=bottom;endArrow=block;edgeStyle=elbowEdgeStyle;elbow=vertical;curved=0;rounded=0;" edge="1" parent="30_RvWhmGhzX1LiPIPOz-4" target="30_RvWhmGhzX1LiPIPOz-5">
          <mxGeometry relative="1" as="geometry">
            <mxPoint x="-102" y="90" as="sourcePoint" />
            <Array as="points">
              <mxPoint x="-40" y="90" />
              <mxPoint x="-60" y="100" />
              <mxPoint x="-40" y="90" />
            </Array>
            <mxPoint x="70" y="90" as="targetPoint" />
          </mxGeometry>
        </mxCell>
        <mxCell id="30_RvWhmGhzX1LiPIPOz-7" value="user" style="html=1;verticalAlign=bottom;endArrow=open;dashed=1;endSize=8;edgeStyle=elbowEdgeStyle;elbow=vertical;curved=0;rounded=0;" edge="1" parent="30_RvWhmGhzX1LiPIPOz-4" source="30_RvWhmGhzX1LiPIPOz-5">
          <mxGeometry x="0.0031" relative="1" as="geometry">
            <mxPoint x="-102" y="120" as="targetPoint" />
            <Array as="points">
              <mxPoint x="33" y="120" />
              <mxPoint x="-22" y="120" />
            </Array>
            <mxPoint x="48" y="120" as="sourcePoint" />
            <mxPoint as="offset" />
          </mxGeometry>
        </mxCell>
        <mxCell id="30_RvWhmGhzX1LiPIPOz-8" value="alt" style="shape=umlFrame;whiteSpace=wrap;html=1;pointerEvents=0;width=55;height=20;" vertex="1" parent="1">
          <mxGeometry x="270" y="410" width="1260" height="670" as="geometry" />
        </mxCell>
        <mxCell id="30_RvWhmGhzX1LiPIPOz-9" value="Try" style="text;html=1;align=center;verticalAlign=middle;whiteSpace=wrap;rounded=0;fontStyle=3;fontColor=#FF8000;" vertex="1" parent="1">
          <mxGeometry x="260" y="420" width="150" height="20" as="geometry" />
        </mxCell>
        <mxCell id="30_RvWhmGhzX1LiPIPOz-10" value="getId()" style="html=1;verticalAlign=bottom;endArrow=block;edgeStyle=elbowEdgeStyle;elbow=vertical;curved=0;rounded=0;" edge="1" parent="1" source="30_RvWhmGhzX1LiPIPOz-3" target="30_RvWhmGhzX1LiPIPOz-15">
          <mxGeometry relative="1" as="geometry">
            <mxPoint x="360" y="450" as="sourcePoint" />
            <Array as="points">
              <mxPoint x="422" y="450" />
              <mxPoint x="402" y="460" />
              <mxPoint x="422" y="450" />
            </Array>
            <mxPoint x="507" y="450" as="targetPoint" />
          </mxGeometry>
        </mxCell>
        <mxCell id="30_RvWhmGhzX1LiPIPOz-11" value="HttpServletRequest" style="shape=umlLifeline;perimeter=lifelinePerimeter;whiteSpace=wrap;html=1;container=0;dropTarget=0;collapsible=0;recursiveResize=0;outlineConnect=0;portConstraint=eastwest;newEdgeStyle={&quot;edgeStyle&quot;:&quot;elbowEdgeStyle&quot;,&quot;elbow&quot;:&quot;vertical&quot;,&quot;curved&quot;:0,&quot;rounded&quot;:0};" vertex="1" parent="1">
          <mxGeometry x="580" y="210" width="120" height="1220" as="geometry" />
        </mxCell>
        <mxCell id="30_RvWhmGhzX1LiPIPOz-12" value="" style="html=1;points=[];perimeter=orthogonalPerimeter;outlineConnect=0;targetShapes=umlLifeline;portConstraint=eastwest;newEdgeStyle={&quot;edgeStyle&quot;:&quot;elbowEdgeStyle&quot;,&quot;elbow&quot;:&quot;vertical&quot;,&quot;curved&quot;:0,&quot;rounded&quot;:0};" vertex="1" parent="30_RvWhmGhzX1LiPIPOz-11">
          <mxGeometry x="55" y="150" width="10" height="30" as="geometry" />
        </mxCell>
        <mxCell id="30_RvWhmGhzX1LiPIPOz-13" value="" style="html=1;points=[];perimeter=orthogonalPerimeter;outlineConnect=0;targetShapes=umlLifeline;portConstraint=eastwest;newEdgeStyle={&quot;edgeStyle&quot;:&quot;elbowEdgeStyle&quot;,&quot;elbow&quot;:&quot;vertical&quot;,&quot;curved&quot;:0,&quot;rounded&quot;:0};" vertex="1" parent="30_RvWhmGhzX1LiPIPOz-11">
          <mxGeometry x="55" y="325" width="10" height="30" as="geometry" />
        </mxCell>
        <mxCell id="30_RvWhmGhzX1LiPIPOz-35" value="(Integer) getParameter(&quot;callid&quot;) &lt;br&gt;&lt;b&gt;&lt;font color=&quot;#ff8000&quot;&gt;?: [THROW NumberFormatExcpetion &lt;br&gt;| NullPointerExcpetion]&lt;/font&gt;&lt;/b&gt;" style="html=1;verticalAlign=bottom;endArrow=block;edgeStyle=elbowEdgeStyle;elbow=vertical;curved=0;rounded=0;" edge="1" parent="30_RvWhmGhzX1LiPIPOz-11" target="30_RvWhmGhzX1LiPIPOz-13">
          <mxGeometry relative="1" as="geometry">
            <mxPoint x="-222" y="325" as="sourcePoint" />
            <Array as="points">
              <mxPoint x="-158" y="325" />
              <mxPoint x="-178" y="335" />
              <mxPoint x="-158" y="325" />
            </Array>
            <mxPoint x="-73" y="325" as="targetPoint" />
          </mxGeometry>
        </mxCell>
        <mxCell id="30_RvWhmGhzX1LiPIPOz-36" value="callId" style="html=1;verticalAlign=bottom;endArrow=open;dashed=1;endSize=8;edgeStyle=elbowEdgeStyle;elbow=vertical;curved=0;rounded=0;" edge="1" parent="30_RvWhmGhzX1LiPIPOz-11" source="30_RvWhmGhzX1LiPIPOz-13">
          <mxGeometry x="0.0031" relative="1" as="geometry">
            <mxPoint x="-222" y="355" as="targetPoint" />
            <Array as="points">
              <mxPoint x="35" y="355" />
              <mxPoint x="-20" y="355" />
            </Array>
            <mxPoint x="47" y="355" as="sourcePoint" />
            <mxPoint as="offset" />
          </mxGeometry>
        </mxCell>
        <mxCell id="30_RvWhmGhzX1LiPIPOz-55" value="" style="html=1;points=[];perimeter=orthogonalPerimeter;outlineConnect=0;targetShapes=umlLifeline;portConstraint=eastwest;newEdgeStyle={&quot;edgeStyle&quot;:&quot;elbowEdgeStyle&quot;,&quot;elbow&quot;:&quot;vertical&quot;,&quot;curved&quot;:0,&quot;rounded&quot;:0};" vertex="1" parent="30_RvWhmGhzX1LiPIPOz-11">
          <mxGeometry x="55" y="530" width="10" height="30" as="geometry" />
        </mxCell>
        <mxCell id="30_RvWhmGhzX1LiPIPOz-56" value="getParameter(&quot;orderBy&quot;), getParameter(&quot;orderTyoe&quot;)" style="html=1;verticalAlign=bottom;endArrow=block;edgeStyle=elbowEdgeStyle;elbow=vertical;curved=0;rounded=0;" edge="1" parent="30_RvWhmGhzX1LiPIPOz-11" target="30_RvWhmGhzX1LiPIPOz-55">
          <mxGeometry relative="1" as="geometry">
            <mxPoint x="-222" y="530" as="sourcePoint" />
            <Array as="points">
              <mxPoint x="-158" y="530" />
              <mxPoint x="-178" y="540" />
              <mxPoint x="-158" y="530" />
            </Array>
            <mxPoint x="-73" y="530" as="targetPoint" />
          </mxGeometry>
        </mxCell>
        <mxCell id="30_RvWhmGhzX1LiPIPOz-57" value="order of sorting, &quot;ASC&quot;/&quot;DESC&quot;" style="html=1;verticalAlign=bottom;endArrow=open;dashed=1;endSize=8;edgeStyle=elbowEdgeStyle;elbow=vertical;curved=0;rounded=0;" edge="1" parent="30_RvWhmGhzX1LiPIPOz-11" source="30_RvWhmGhzX1LiPIPOz-55">
          <mxGeometry x="0.0031" relative="1" as="geometry">
            <mxPoint x="-222" y="560" as="targetPoint" />
            <Array as="points">
              <mxPoint x="35" y="560" />
              <mxPoint x="-20" y="560" />
            </Array>
            <mxPoint x="47" y="560" as="sourcePoint" />
            <mxPoint as="offset" />
          </mxGeometry>
        </mxCell>
        <mxCell id="30_RvWhmGhzX1LiPIPOz-14" value="User" style="shape=umlLifeline;perimeter=lifelinePerimeter;whiteSpace=wrap;html=1;container=0;dropTarget=0;collapsible=0;recursiveResize=0;outlineConnect=0;portConstraint=eastwest;newEdgeStyle={&quot;edgeStyle&quot;:&quot;elbowEdgeStyle&quot;,&quot;elbow&quot;:&quot;vertical&quot;,&quot;curved&quot;:0,&quot;rounded&quot;:0};" vertex="1" parent="1">
          <mxGeometry x="710" y="210" width="100" height="1230" as="geometry" />
        </mxCell>
        <mxCell id="30_RvWhmGhzX1LiPIPOz-15" value="" style="html=1;points=[];perimeter=orthogonalPerimeter;outlineConnect=0;targetShapes=umlLifeline;portConstraint=eastwest;newEdgeStyle={&quot;edgeStyle&quot;:&quot;elbowEdgeStyle&quot;,&quot;elbow&quot;:&quot;vertical&quot;,&quot;curved&quot;:0,&quot;rounded&quot;:0};" vertex="1" parent="30_RvWhmGhzX1LiPIPOz-14">
          <mxGeometry x="47" y="240" width="10" height="30" as="geometry" />
        </mxCell>
        <mxCell id="30_RvWhmGhzX1LiPIPOz-16" value="getNumberOfVerbalizableMarks(callId)" style="html=1;verticalAlign=bottom;endArrow=block;edgeStyle=elbowEdgeStyle;elbow=vertical;curved=0;rounded=0;" edge="1" parent="30_RvWhmGhzX1LiPIPOz-14" target="30_RvWhmGhzX1LiPIPOz-33">
          <mxGeometry relative="1" as="geometry">
            <mxPoint x="-352" y="289" as="sourcePoint" />
            <Array as="points">
              <mxPoint x="110" y="390" />
              <mxPoint x="-150" y="300" />
              <mxPoint x="-288" y="289" />
              <mxPoint x="-308" y="299" />
              <mxPoint x="-288" y="289" />
            </Array>
            <mxPoint x="-203" y="289" as="targetPoint" />
          </mxGeometry>
        </mxCell>
        <mxCell id="30_RvWhmGhzX1LiPIPOz-30" value="getAttribute(&quot;errorMessage&quot;)" style="html=1;verticalAlign=bottom;endArrow=block;edgeStyle=elbowEdgeStyle;elbow=vertical;curved=0;rounded=0;" edge="1" parent="1" target="30_RvWhmGhzX1LiPIPOz-12">
          <mxGeometry relative="1" as="geometry">
            <mxPoint x="350" y="360" as="sourcePoint" />
            <Array as="points">
              <mxPoint x="422" y="360" />
              <mxPoint x="402" y="370" />
              <mxPoint x="422" y="360" />
            </Array>
            <mxPoint x="507" y="360" as="targetPoint" />
          </mxGeometry>
        </mxCell>
        <mxCell id="30_RvWhmGhzX1LiPIPOz-31" value="error" style="html=1;verticalAlign=bottom;endArrow=open;dashed=1;endSize=8;edgeStyle=elbowEdgeStyle;elbow=vertical;curved=0;rounded=0;" edge="1" parent="1" source="30_RvWhmGhzX1LiPIPOz-12" target="30_RvWhmGhzX1LiPIPOz-3">
          <mxGeometry x="0.0031" relative="1" as="geometry">
            <mxPoint x="480" y="390" as="targetPoint" />
            <Array as="points">
              <mxPoint x="615" y="390" />
              <mxPoint x="560" y="390" />
            </Array>
            <mxPoint x="627" y="390" as="sourcePoint" />
            <mxPoint as="offset" />
          </mxGeometry>
        </mxCell>
        <mxCell id="30_RvWhmGhzX1LiPIPOz-32" value="CallEvaluationDAO" style="shape=umlLifeline;perimeter=lifelinePerimeter;whiteSpace=wrap;html=1;container=0;dropTarget=0;collapsible=0;recursiveResize=0;outlineConnect=0;portConstraint=eastwest;newEdgeStyle={&quot;edgeStyle&quot;:&quot;elbowEdgeStyle&quot;,&quot;elbow&quot;:&quot;vertical&quot;,&quot;curved&quot;:0,&quot;rounded&quot;:0};" vertex="1" parent="1">
          <mxGeometry x="820" y="210" width="120" height="1230" as="geometry" />
        </mxCell>
        <mxCell id="30_RvWhmGhzX1LiPIPOz-33" value="" style="html=1;points=[];perimeter=orthogonalPerimeter;outlineConnect=0;targetShapes=umlLifeline;portConstraint=eastwest;newEdgeStyle={&quot;edgeStyle&quot;:&quot;elbowEdgeStyle&quot;,&quot;elbow&quot;:&quot;vertical&quot;,&quot;curved&quot;:0,&quot;rounded&quot;:0};" vertex="1" parent="30_RvWhmGhzX1LiPIPOz-32">
          <mxGeometry x="55" y="390" width="10" height="30" as="geometry" />
        </mxCell>
        <mxCell id="30_RvWhmGhzX1LiPIPOz-51" value="" style="html=1;points=[];perimeter=orthogonalPerimeter;outlineConnect=0;targetShapes=umlLifeline;portConstraint=eastwest;newEdgeStyle={&quot;edgeStyle&quot;:&quot;elbowEdgeStyle&quot;,&quot;elbow&quot;:&quot;vertical&quot;,&quot;curved&quot;:0,&quot;rounded&quot;:0};" vertex="1" parent="30_RvWhmGhzX1LiPIPOz-32">
          <mxGeometry x="55" y="460" width="10" height="30" as="geometry" />
        </mxCell>
        <mxCell id="30_RvWhmGhzX1LiPIPOz-34" value="idUser" style="html=1;verticalAlign=bottom;endArrow=open;dashed=1;endSize=8;edgeStyle=elbowEdgeStyle;elbow=vertical;curved=0;rounded=0;" edge="1" parent="1" source="30_RvWhmGhzX1LiPIPOz-15" target="30_RvWhmGhzX1LiPIPOz-3">
          <mxGeometry x="0.0031" relative="1" as="geometry">
            <mxPoint x="620" y="480" as="targetPoint" />
            <Array as="points">
              <mxPoint x="755" y="480" />
              <mxPoint x="700" y="480" />
            </Array>
            <mxPoint x="770" y="480" as="sourcePoint" />
            <mxPoint as="offset" />
          </mxGeometry>
        </mxCell>
        <mxCell id="30_RvWhmGhzX1LiPIPOz-38" value="Exception" style="shape=umlLifeline;perimeter=lifelinePerimeter;whiteSpace=wrap;html=1;container=0;dropTarget=0;collapsible=0;recursiveResize=0;outlineConnect=0;portConstraint=eastwest;newEdgeStyle={&quot;edgeStyle&quot;:&quot;elbowEdgeStyle&quot;,&quot;elbow&quot;:&quot;vertical&quot;,&quot;curved&quot;:0,&quot;rounded&quot;:0};" vertex="1" parent="1">
          <mxGeometry x="960" y="210" width="100" height="1240" as="geometry" />
        </mxCell>
        <mxCell id="30_RvWhmGhzX1LiPIPOz-23" value="" style="line;strokeWidth=3;align=left;verticalAlign=middle;spacingTop=-1;spacingLeft=3;spacingRight=3;rotatable=0;labelPosition=right;points=[];portConstraint=eastwest;dashed=1;strokeColor=#80FF00;" vertex="1" parent="30_RvWhmGhzX1LiPIPOz-38">
          <mxGeometry x="-710" y="720" width="1300" height="8" as="geometry" />
        </mxCell>
        <mxCell id="30_RvWhmGhzX1LiPIPOz-25" value="" style="html=1;points=[];perimeter=orthogonalPerimeter;outlineConnect=0;targetShapes=umlLifeline;portConstraint=eastwest;newEdgeStyle={&quot;edgeStyle&quot;:&quot;elbowEdgeStyle&quot;,&quot;elbow&quot;:&quot;vertical&quot;,&quot;curved&quot;:0,&quot;rounded&quot;:0};" vertex="1" parent="30_RvWhmGhzX1LiPIPOz-38">
          <mxGeometry x="45" y="780" width="10" height="30" as="geometry" />
        </mxCell>
        <mxCell id="30_RvWhmGhzX1LiPIPOz-26" value="getMessage()" style="html=1;verticalAlign=bottom;endArrow=block;edgeStyle=elbowEdgeStyle;elbow=vertical;curved=0;rounded=0;" edge="1" parent="30_RvWhmGhzX1LiPIPOz-38" target="30_RvWhmGhzX1LiPIPOz-25">
          <mxGeometry relative="1" as="geometry">
            <mxPoint x="-602" y="779.9999999999998" as="sourcePoint" />
            <Array as="points">
              <mxPoint x="-140" y="780" />
              <mxPoint x="-170" y="790" />
              <mxPoint x="-390" y="801" />
              <mxPoint x="-528" y="790" />
              <mxPoint x="-548" y="800" />
              <mxPoint x="-528" y="790" />
            </Array>
            <mxPoint x="-85" y="801" as="targetPoint" />
          </mxGeometry>
        </mxCell>
        <mxCell id="30_RvWhmGhzX1LiPIPOz-27" value="error message" style="html=1;verticalAlign=bottom;endArrow=open;dashed=1;endSize=8;edgeStyle=elbowEdgeStyle;elbow=vertical;curved=0;rounded=0;" edge="1" parent="30_RvWhmGhzX1LiPIPOz-38" source="30_RvWhmGhzX1LiPIPOz-25">
          <mxGeometry x="0.0031" relative="1" as="geometry">
            <mxPoint x="-602" y="809.9999999999998" as="targetPoint" />
            <Array as="points">
              <mxPoint x="-298" y="810" />
              <mxPoint x="-93" y="799" />
              <mxPoint x="-148" y="799" />
            </Array>
            <mxPoint x="17" y="810" as="sourcePoint" />
            <mxPoint as="offset" />
          </mxGeometry>
        </mxCell>
        <mxCell id="30_RvWhmGhzX1LiPIPOz-29" value="setVariable(&quot;calls&quot;, calls) ; setVariable(&quot;courses&quot;, courses) ; setVariable(&quot;errorMessage&quot;, error) ; setVariable(&quot;firstTime&quot;, firstTime)" style="html=1;verticalAlign=bottom;endArrow=block;edgeStyle=elbowEdgeStyle;elbow=vertical;curved=0;rounded=0;" edge="1" parent="30_RvWhmGhzX1LiPIPOz-38" target="30_RvWhmGhzX1LiPIPOz-28">
          <mxGeometry relative="1" as="geometry">
            <mxPoint x="-602" y="859.9999999999998" as="sourcePoint" />
            <Array as="points">
              <mxPoint x="120" y="840" />
              <mxPoint x="110" y="830" />
              <mxPoint x="-180" y="860" />
              <mxPoint x="-138" y="850" />
              <mxPoint x="-168" y="860" />
              <mxPoint x="-388" y="871" />
              <mxPoint x="-526" y="860" />
              <mxPoint x="-546" y="870" />
              <mxPoint x="-526" y="860" />
            </Array>
            <mxPoint x="17" y="850" as="targetPoint" />
          </mxGeometry>
        </mxCell>
        <mxCell id="30_RvWhmGhzX1LiPIPOz-44" value="process(WebContext, &quot;HomeStudent.html&quot;)" style="html=1;verticalAlign=bottom;endArrow=block;edgeStyle=elbowEdgeStyle;elbow=vertical;curved=0;rounded=0;" edge="1" parent="30_RvWhmGhzX1LiPIPOz-38" target="30_RvWhmGhzX1LiPIPOz-73">
          <mxGeometry x="0.0011" relative="1" as="geometry">
            <mxPoint x="-602" y="990" as="sourcePoint" />
            <Array as="points">
              <mxPoint x="-10" y="940" />
              <mxPoint x="190" y="990" />
              <mxPoint x="300" y="900.5" />
              <mxPoint x="-178" y="896.5" />
              <mxPoint x="-136" y="886.5" />
              <mxPoint x="-166" y="896.5" />
              <mxPoint x="-386" y="907.5" />
              <mxPoint x="-524" y="896.5" />
              <mxPoint x="-544" y="906.5" />
              <mxPoint x="-524" y="896.5" />
            </Array>
            <mxPoint x="250" y="950.5" as="targetPoint" />
            <mxPoint as="offset" />
          </mxGeometry>
        </mxCell>
        <mxCell id="30_RvWhmGhzX1LiPIPOz-40" value="WebContext" style="shape=umlLifeline;perimeter=lifelinePerimeter;whiteSpace=wrap;html=1;container=0;dropTarget=0;collapsible=0;recursiveResize=0;outlineConnect=0;portConstraint=eastwest;newEdgeStyle={&quot;edgeStyle&quot;:&quot;elbowEdgeStyle&quot;,&quot;elbow&quot;:&quot;vertical&quot;,&quot;curved&quot;:0,&quot;rounded&quot;:0};" vertex="1" parent="1">
          <mxGeometry x="1070" y="210" width="100" height="1220" as="geometry" />
        </mxCell>
        <mxCell id="30_RvWhmGhzX1LiPIPOz-28" value="" style="html=1;points=[];perimeter=orthogonalPerimeter;outlineConnect=0;targetShapes=umlLifeline;portConstraint=eastwest;newEdgeStyle={&quot;edgeStyle&quot;:&quot;elbowEdgeStyle&quot;,&quot;elbow&quot;:&quot;vertical&quot;,&quot;curved&quot;:0,&quot;rounded&quot;:0};" vertex="1" parent="30_RvWhmGhzX1LiPIPOz-40">
          <mxGeometry x="45" y="840" width="10" height="17.5" as="geometry" />
        </mxCell>
        <mxCell id="30_RvWhmGhzX1LiPIPOz-69" value="" style="html=1;points=[];perimeter=orthogonalPerimeter;outlineConnect=0;targetShapes=umlLifeline;portConstraint=eastwest;newEdgeStyle={&quot;edgeStyle&quot;:&quot;elbowEdgeStyle&quot;,&quot;elbow&quot;:&quot;vertical&quot;,&quot;curved&quot;:0,&quot;rounded&quot;:0};" vertex="1" parent="30_RvWhmGhzX1LiPIPOz-40">
          <mxGeometry x="45" y="900" width="10" height="17.5" as="geometry" />
        </mxCell>
        <mxCell id="30_RvWhmGhzX1LiPIPOz-41" value="GraduationCallDAO" style="shape=umlLifeline;perimeter=lifelinePerimeter;whiteSpace=wrap;html=1;container=0;dropTarget=0;collapsible=0;recursiveResize=0;outlineConnect=0;portConstraint=eastwest;newEdgeStyle={&quot;edgeStyle&quot;:&quot;elbowEdgeStyle&quot;,&quot;elbow&quot;:&quot;vertical&quot;,&quot;curved&quot;:0,&quot;rounded&quot;:0};" vertex="1" parent="1">
          <mxGeometry x="1180" y="210" width="120" height="1240" as="geometry" />
        </mxCell>
        <mxCell id="30_RvWhmGhzX1LiPIPOz-48" value="" style="html=1;points=[];perimeter=orthogonalPerimeter;outlineConnect=0;targetShapes=umlLifeline;portConstraint=eastwest;newEdgeStyle={&quot;edgeStyle&quot;:&quot;elbowEdgeStyle&quot;,&quot;elbow&quot;:&quot;vertical&quot;,&quot;curved&quot;:0,&quot;rounded&quot;:0};" vertex="1" parent="30_RvWhmGhzX1LiPIPOz-41">
          <mxGeometry x="55" y="580" width="10" height="20" as="geometry" />
        </mxCell>
        <mxCell id="30_RvWhmGhzX1LiPIPOz-65" value="" style="html=1;points=[];perimeter=orthogonalPerimeter;outlineConnect=0;targetShapes=umlLifeline;portConstraint=eastwest;newEdgeStyle={&quot;edgeStyle&quot;:&quot;elbowEdgeStyle&quot;,&quot;elbow&quot;:&quot;vertical&quot;,&quot;curved&quot;:0,&quot;rounded&quot;:0};" vertex="1" parent="30_RvWhmGhzX1LiPIPOz-41">
          <mxGeometry x="55" y="670" width="10" height="20" as="geometry" />
        </mxCell>
        <mxCell id="30_RvWhmGhzX1LiPIPOz-47" value="StudentDAO" style="shape=umlLifeline;perimeter=lifelinePerimeter;whiteSpace=wrap;html=1;container=0;dropTarget=0;collapsible=0;recursiveResize=0;outlineConnect=0;portConstraint=eastwest;newEdgeStyle={&quot;edgeStyle&quot;:&quot;elbowEdgeStyle&quot;,&quot;elbow&quot;:&quot;vertical&quot;,&quot;curved&quot;:0,&quot;rounded&quot;:0};" vertex="1" parent="1">
          <mxGeometry x="1310" y="211" width="100" height="1229" as="geometry" />
        </mxCell>
        <mxCell id="30_RvWhmGhzX1LiPIPOz-42" value="" style="html=1;points=[];perimeter=orthogonalPerimeter;outlineConnect=0;targetShapes=umlLifeline;portConstraint=eastwest;newEdgeStyle={&quot;edgeStyle&quot;:&quot;elbowEdgeStyle&quot;,&quot;elbow&quot;:&quot;vertical&quot;,&quot;curved&quot;:0,&quot;rounded&quot;:0};" vertex="1" parent="30_RvWhmGhzX1LiPIPOz-47">
          <mxGeometry x="45" y="620" width="10" height="20" as="geometry" />
        </mxCell>
        <mxCell id="30_RvWhmGhzX1LiPIPOz-53" value="getNumberOfPublishableMarks(callId)" style="html=1;verticalAlign=bottom;endArrow=block;edgeStyle=elbowEdgeStyle;elbow=vertical;curved=0;rounded=0;" edge="1" parent="1" source="30_RvWhmGhzX1LiPIPOz-3" target="30_RvWhmGhzX1LiPIPOz-51">
          <mxGeometry relative="1" as="geometry">
            <mxPoint x="360" y="570" as="sourcePoint" />
            <Array as="points">
              <mxPoint x="822" y="671" />
              <mxPoint x="562" y="581" />
              <mxPoint x="424" y="570" />
              <mxPoint x="404" y="580" />
              <mxPoint x="424" y="570" />
            </Array>
            <mxPoint x="877" y="671" as="targetPoint" />
          </mxGeometry>
        </mxCell>
        <mxCell id="30_RvWhmGhzX1LiPIPOz-54" value="number of publishable marks" style="html=1;verticalAlign=bottom;endArrow=open;dashed=1;endSize=8;edgeStyle=elbowEdgeStyle;elbow=vertical;curved=0;rounded=0;" edge="1" parent="1" source="30_RvWhmGhzX1LiPIPOz-51" target="30_RvWhmGhzX1LiPIPOz-3">
          <mxGeometry x="0.0031" relative="1" as="geometry">
            <mxPoint x="360" y="611" as="targetPoint" />
            <Array as="points">
              <mxPoint x="812" y="701" />
              <mxPoint x="552" y="611" />
              <mxPoint x="757" y="600" />
              <mxPoint x="702" y="600" />
            </Array>
            <mxPoint x="877" y="701" as="sourcePoint" />
            <mxPoint as="offset" />
          </mxGeometry>
        </mxCell>
        <mxCell id="30_RvWhmGhzX1LiPIPOz-17" value="number of verbalizable marks" style="html=1;verticalAlign=bottom;endArrow=open;dashed=1;endSize=8;edgeStyle=elbowEdgeStyle;elbow=vertical;curved=0;rounded=0;" edge="1" parent="1" source="30_RvWhmGhzX1LiPIPOz-33" target="30_RvWhmGhzX1LiPIPOz-3">
          <mxGeometry x="0.0031" relative="1" as="geometry">
            <mxPoint x="358" y="540" as="targetPoint" />
            <Array as="points">
              <mxPoint x="810" y="630" />
              <mxPoint x="550" y="540" />
              <mxPoint x="755" y="529" />
              <mxPoint x="700" y="529" />
            </Array>
            <mxPoint x="770" y="529" as="sourcePoint" />
            <mxPoint as="offset" />
          </mxGeometry>
        </mxCell>
        <mxCell id="30_RvWhmGhzX1LiPIPOz-37" value="checkIfCourseOfCallIsTaughtByLecturer(callId, idUser) &lt;b&gt;&lt;font color=&quot;#ff8000&quot;&gt;?: [THROW GraduationCallException]&lt;/font&gt;&lt;/b&gt;" style="html=1;verticalAlign=bottom;endArrow=block;edgeStyle=elbowEdgeStyle;elbow=vertical;curved=0;rounded=0;" edge="1" parent="1" target="30_RvWhmGhzX1LiPIPOz-48">
          <mxGeometry x="-0.0007" relative="1" as="geometry">
            <mxPoint x="360" y="791.5" as="sourcePoint" />
            <Array as="points">
              <mxPoint x="564" y="791.5" />
              <mxPoint x="426" y="780.5" />
              <mxPoint x="406" y="790.5" />
              <mxPoint x="426" y="780.5" />
            </Array>
            <mxPoint x="869" y="791.5" as="targetPoint" />
            <mxPoint as="offset" />
          </mxGeometry>
        </mxCell>
        <mxCell id="30_RvWhmGhzX1LiPIPOz-43" value="findAllRegistrationsAndEvaluationToCallOrdered" style="html=1;verticalAlign=bottom;endArrow=block;edgeStyle=elbowEdgeStyle;elbow=vertical;curved=0;rounded=0;" edge="1" parent="1" target="30_RvWhmGhzX1LiPIPOz-42" source="30_RvWhmGhzX1LiPIPOz-3">
          <mxGeometry relative="1" as="geometry">
            <mxPoint x="482" y="831" as="sourcePoint" />
            <Array as="points">
              <mxPoint x="1062" y="831" />
              <mxPoint x="686" y="821" />
              <mxPoint x="548" y="810" />
              <mxPoint x="528" y="820" />
              <mxPoint x="548" y="810" />
            </Array>
            <mxPoint x="989" y="821.5" as="targetPoint" />
          </mxGeometry>
        </mxCell>
        <mxCell id="30_RvWhmGhzX1LiPIPOz-39" value="calls" style="html=1;verticalAlign=bottom;endArrow=open;dashed=1;endSize=8;edgeStyle=elbowEdgeStyle;elbow=vertical;curved=0;rounded=0;" edge="1" parent="1" source="30_RvWhmGhzX1LiPIPOz-42" target="30_RvWhmGhzX1LiPIPOz-3">
          <mxGeometry x="0.0031" relative="1" as="geometry">
            <mxPoint x="480" y="851" as="targetPoint" />
            <Array as="points">
              <mxPoint x="1004" y="851" />
              <mxPoint x="1209" y="840" />
              <mxPoint x="1154" y="840" />
            </Array>
            <mxPoint x="1319" y="851" as="sourcePoint" />
            <mxPoint as="offset" />
          </mxGeometry>
        </mxCell>
        <mxCell id="30_RvWhmGhzX1LiPIPOz-66" value="findGraduationCallById(callId)" style="html=1;verticalAlign=bottom;endArrow=block;edgeStyle=elbowEdgeStyle;elbow=vertical;curved=0;rounded=0;" edge="1" parent="1" source="30_RvWhmGhzX1LiPIPOz-3" target="30_RvWhmGhzX1LiPIPOz-65">
          <mxGeometry x="-0.0007" relative="1" as="geometry">
            <mxPoint x="360" y="880" as="sourcePoint" />
            <Array as="points">
              <mxPoint x="564" y="880" />
              <mxPoint x="426" y="869" />
              <mxPoint x="406" y="879" />
              <mxPoint x="426" y="869" />
            </Array>
            <mxPoint x="1235" y="880.5" as="targetPoint" />
            <mxPoint as="offset" />
          </mxGeometry>
        </mxCell>
        <mxCell id="30_RvWhmGhzX1LiPIPOz-67" value="call" style="html=1;verticalAlign=bottom;endArrow=open;dashed=1;endSize=8;edgeStyle=elbowEdgeStyle;elbow=vertical;curved=0;rounded=0;" edge="1" parent="1" source="30_RvWhmGhzX1LiPIPOz-65" target="30_RvWhmGhzX1LiPIPOz-3">
          <mxGeometry x="0.0031" relative="1" as="geometry">
            <mxPoint x="710" y="901" as="targetPoint" />
            <Array as="points">
              <mxPoint x="1164" y="901" />
              <mxPoint x="904" y="811" />
              <mxPoint x="1109" y="800" />
              <mxPoint x="1054" y="800" />
            </Array>
            <mxPoint x="1232" y="900" as="sourcePoint" />
            <mxPoint as="offset" />
          </mxGeometry>
        </mxCell>
        <mxCell id="30_RvWhmGhzX1LiPIPOz-24" value="Catch(SQLException | StudentDAOException |&lt;b style=&quot;color: rgb(240, 240, 240); font-size: 11px; font-style: normal;&quot;&gt;&lt;font color=&quot;#ff8000&quot;&gt;NumberFormatExcpetion | NullPointerExcpetion&lt;/font&gt;&lt;/b&gt;)" style="text;html=1;align=center;verticalAlign=middle;whiteSpace=wrap;rounded=0;fontStyle=3;fontColor=#FF8000;" vertex="1" parent="1">
          <mxGeometry x="300" y="949.5" width="290" height="20" as="geometry" />
        </mxCell>
        <mxCell id="30_RvWhmGhzX1LiPIPOz-68" value="setVariable(&quot;calls&quot;, calls) ; setVariable(&quot;courses&quot;, courses) ; setVariable(&quot;errorMessage&quot;, error) ; setVariable(&quot;firstTime&quot;, firstTime)" style="html=1;verticalAlign=bottom;endArrow=block;edgeStyle=elbowEdgeStyle;elbow=vertical;curved=0;rounded=0;" edge="1" parent="1" source="30_RvWhmGhzX1LiPIPOz-3" target="30_RvWhmGhzX1LiPIPOz-69">
          <mxGeometry relative="1" as="geometry">
            <mxPoint x="360" y="1150" as="sourcePoint" />
            <Array as="points">
              <mxPoint x="683" y="1110" />
              <mxPoint x="760" y="1090" />
              <mxPoint x="1082" y="1150" />
              <mxPoint x="1072" y="1140" />
              <mxPoint x="782" y="1170" />
              <mxPoint x="824" y="1160" />
              <mxPoint x="794" y="1170" />
              <mxPoint x="574" y="1181" />
              <mxPoint x="436" y="1170" />
              <mxPoint x="416" y="1180" />
              <mxPoint x="436" y="1170" />
            </Array>
            <mxPoint x="1117" y="1150" as="targetPoint" />
          </mxGeometry>
        </mxCell>
        <mxCell id="30_RvWhmGhzX1LiPIPOz-72" value="TemplateEngine" style="shape=umlLifeline;perimeter=lifelinePerimeter;whiteSpace=wrap;html=1;container=0;dropTarget=0;collapsible=0;recursiveResize=0;outlineConnect=0;portConstraint=eastwest;newEdgeStyle={&quot;edgeStyle&quot;:&quot;elbowEdgeStyle&quot;,&quot;elbow&quot;:&quot;vertical&quot;,&quot;curved&quot;:0,&quot;rounded&quot;:0};" vertex="1" parent="1">
          <mxGeometry x="1420" y="211" width="100" height="1229" as="geometry" />
        </mxCell>
        <mxCell id="30_RvWhmGhzX1LiPIPOz-73" value="" style="html=1;points=[];perimeter=orthogonalPerimeter;outlineConnect=0;targetShapes=umlLifeline;portConstraint=eastwest;newEdgeStyle={&quot;edgeStyle&quot;:&quot;elbowEdgeStyle&quot;,&quot;elbow&quot;:&quot;vertical&quot;,&quot;curved&quot;:0,&quot;rounded&quot;:0};" vertex="1" parent="30_RvWhmGhzX1LiPIPOz-72">
          <mxGeometry x="45" y="939" width="10" height="20" as="geometry" />
        </mxCell>
      </root>
    </mxGraphModel>
  </diagram>
</mxfile>
